<svg xmlns="http://www.w3.org/2000/svg" viewBox="0 0 512 512" width="512" height="512" role="img" aria-label="Logo">
  <defs>
    <clipPath id="tileClip">
      <rect x="16" y="16" width="480" height="480" rx="128"></rect>
    </clipPath>
  </defs>

  <rect x="16" y="16" width="480" height="480" rx="128" fill="#04191F"></rect>

  
  <g clip-path="url(#tileClip)"><g transform="translate(87.3, 87.3) scale(0.659)">
    <g fill="#3ED8F0">
      <rect x="80" y="80" width="92" height="14" rx="7"></rect>
      <rect x="80" y="114" width="12" height="14" rx="6"></rect>
      <rect x="102" y="114" width="70" height="14" rx="7"></rect>
      <rect x="80" y="148" width="12" height="14" rx="6"></rect>
      <rect x="102" y="148" width="12" height="14" rx="6"></rect>
      <rect x="124" y="148" width="48" height="14" rx="7"></rect>
      <rect x="80" y="181" width="12" height="14" rx="6"></rect>
      <rect x="102" y="181" width="78" height="14" rx="7"></rect>
      <rect x="80" y="215" width="12" height="14" rx="6"></rect>
      <rect x="102" y="215" width="56" height="14" rx="7"></rect>
      <rect x="80" y="249" width="16" height="14" rx="6"></rect>
      <rect x="106" y="249" width="74" height="14" rx="7"></rect>
      <rect x="80" y="283" width="12" height="14" rx="6"></rect>
      <rect x="102" y="283" width="12" height="14" rx="6"></rect>
      <rect x="124" y="283" width="12" height="14" rx="6"></rect>
      <rect x="146" y="283" width="34" height="14" rx="7"></rect>
      <rect x="80" y="317" width="80" height="14" rx="7"></rect>
      <rect x="80" y="350" width="62" height="14" rx="7"></rect>
      <rect x="80" y="384" width="72" height="14" rx="7"></rect>
      <rect x="80" y="418" width="44" height="14" rx="7"></rect>
    </g>

    
    <path fill="#0F6076" d="M210 220 L261 220 L282 245 L324 90 L432 90 L432 432 L363 432 L363 130 L306 340 Z"></path>
    <path fill="#8CF4FF" d="M200 210 L251 210 L272 235 L314 80 L422 80 L422 422 L353 422 L353 120 L296 330 Z"></path>
  </g></g>

  <rect x="17" y="17" width="478" height="478" rx="127" fill="none" stroke="#2E93A8" stroke-width="2"></rect>
</svg>